<?xml version="1.0" encoding="UTF-8" standalone="no"?>
<!DOCTYPE svg PUBLIC "-//W3C//DTD SVG 1.1//EN" "http://www.w3.org/Graphics/SVG/1.1/DTD/svg11.dtd">
<svg width="100%" height="100%" viewBox="0 0 1678 1080" version="1.1" xmlns="http://www.w3.org/2000/svg" xmlns:xlink="http://www.w3.org/1999/xlink" xml:space="preserve" xmlns:serif="http://www.serif.com/" style="fill-rule:evenodd;clip-rule:evenodd;stroke-linejoin:round;stroke-miterlimit:2;">
    <g transform="matrix(1,0,0,1,-1130,0)">
        <g id="inline" transform="matrix(1.552963,0,0,1,-624.848352,0)">
            <rect x="1130" y="0" width="1080" height="1080" style="fill:none;"/>
            <g transform="matrix(1,0,0,1,17.900491,0)">
                <g id="Logo" transform="matrix(0.64393,0,0,1,1030.720435,111.77443)">
                    <path d="M546.951,427.479C549.831,442.608 549.626,442.739 557.223,456.651C560.476,462.61 571.914,473.412 574.795,475.034C591.332,484.344 594.603,487.81 623.462,486.122C626.774,485.928 646.331,480.204 657.327,468.338C667.97,456.852 667.761,455.903 669.517,456.448C671.449,457.047 671.393,457.152 693.392,464.783C705.269,468.903 708.144,469.805 705.679,472.643C693.82,486.29 675.043,525.509 612.502,527.616C566.73,529.158 537.829,496.972 533.177,491.791C528.318,486.378 527.604,484.206 525.132,487.195C476.122,546.474 402.938,535.037 365.887,498.112C355.554,487.814 344.356,471.853 344.382,471.485C344.534,469.353 374.872,460.824 380.659,457.859C388.557,453.812 383.816,466.025 411.305,480.863C411.576,481.009 421.591,488.643 449.473,487.219C460.864,486.637 477.927,482.341 473.128,477.88C467.426,472.581 406.166,411.896 403.594,409.404C399.621,405.553 354.931,362.245 354.724,360.462C354.516,358.676 367.687,343.807 375.286,339.179C376.93,338.178 379.555,334.806 388.687,329.848C415.848,315.101 478.909,301.181 525.411,358.601C527.249,360.871 527.484,357.34 533.614,351.625C542.208,343.611 550.568,329.332 586.406,319.097C616.742,310.434 662.296,319.041 688.611,349.406C707.61,371.328 707.599,373.339 705.364,374.193C669.56,387.877 668.628,387.952 666.417,385.576C657.51,376.006 642.673,353.11 602.519,357.661C584.885,359.66 554.045,374.122 547.684,412.529C546.454,419.958 546.927,419.928 546.951,427.479ZM506.094,434.479C506.321,415.691 508.468,392.196 478.435,369.589C452.124,349.785 412.903,359.939 412.912,362.481C412.913,362.96 492.698,440.769 497.966,447.055C504.301,454.614 504.569,442.327 506.094,434.479ZM553.509,682.09C596.583,682.489 602.343,681.804 643.407,672.121C672.526,665.253 698.899,648.576 690.316,657.324C689.988,657.659 661.905,673.891 645.391,680.232C588.087,702.238 517.557,717.471 421.676,678.104C407.448,672.263 372.347,651.99 355.762,637.204C343.981,626.703 325.687,612.712 300.188,575.705C259.147,516.141 234.1,416.305 269.767,321.604C271.643,316.622 275.234,300.759 298.863,262.732C308.145,247.795 323.539,230.509 325.886,227.874C351.315,199.32 380.418,181.143 385.71,177.838C388.924,175.83 411.023,162.028 427.564,155.647C432.464,153.756 431.879,156.331 431.698,156.618C430.249,158.923 409.668,164.166 369.48,203.48C348.803,223.709 301.093,281.955 291.402,361.487C285.726,408.073 287.912,445.659 304.257,493.582C343,607.176 442.288,651.474 443.66,652.173C496.525,679.107 546.487,680.937 553.509,682.09ZM558.5,154.033C614.74,154.112 617.091,160.063 642.582,167.167C645.696,168.035 658.763,171.677 679.741,183.048C682.651,184.625 700.453,194.274 714.533,205.457C726.81,215.206 726.556,215.494 727.626,216.336C749.06,233.214 771.763,265.389 773.142,267.728C781.83,282.466 835.072,357.948 808.344,472.462C799.431,510.649 775.676,552.472 756.552,574.544C737.85,596.129 736.747,597.533 735.423,595.551C734.733,594.519 749.476,578.213 760.865,557.709C795.458,495.429 792.229,436.536 792.185,429.501C792.147,423.448 791.566,423.561 791.349,417.509C789.204,357.62 756.353,297.118 725.351,264.643C689.25,226.826 654.855,211.576 653.341,210.818C567.375,167.805 482.034,184 431.353,209.204C345.23,252.032 329.834,308.32 325.341,303.652C324.788,303.078 327.048,298.775 327.257,298.377C344.239,266.03 356.549,249.244 377.858,227.857C384.376,221.316 384.64,221.706 391.416,215.407C421.658,187.293 466.686,169.624 468.667,168.99C511.921,155.148 523.12,153.815 558.5,154.033ZM775.944,430.49C778.682,452.525 774.507,503.406 751.238,544.358C740.278,563.647 717.451,605.198 656.747,635.999C603.093,663.222 527.645,668.46 461.758,634.021C461.464,633.868 453.618,630.225 452.467,629.557C447.198,626.503 450.189,625.114 450.551,625.228C452.732,625.918 463.479,633.424 498.528,640.376C619.321,664.332 749.668,571.667 749.068,427.501C748.994,409.737 742.992,365.058 723.251,330.636C702.18,293.894 688.954,283.304 669.666,266.309C663.35,260.743 639.349,244.31 625.45,239.624C622.535,238.641 622.578,235.625 625.454,236.621C626.361,236.935 716.628,260.874 759.109,356.677C760.55,359.928 769.399,384.619 771.548,394.489C775.542,412.83 775.878,427.589 775.944,430.49Z" style="fill:white;"/>
                </g>
                <g id="Marca" transform="matrix(0.64393,0,0,1,1586.012899,-157.205293)">
                    <path d="M812.803,747.502C812.762,753.76 813.652,760.555 810.505,760.582C798.672,760.68 796.5,760.653 796.42,758.511C795.903,744.52 796.517,744.245 797.598,743.763C797.638,743.744 811.541,743.489 812.148,743.937C812.776,744.4 812.515,744.516 812.803,747.502ZM781.294,687.303C788.851,664.669 814.257,667.906 814.895,673.437C815.051,674.793 814.674,684.968 813.346,686.362C810.089,689.777 792.465,678.778 782.979,700.713C779.058,709.779 783.728,758.276 780.435,760.361C780.123,760.558 766.497,760.813 765.728,760.22C763.993,758.881 764.992,681.35 765.081,674.492C765.146,669.446 767.502,671.221 772.5,671.212C772.501,671.212 777.903,670.377 778.709,673.428C780.172,678.962 779.793,683.612 779.725,686.421L781.294,687.303ZM718.5,778.967C712.101,779.006 701.444,779.827 702.337,774.482C703.61,766.863 703.067,763.548 710.54,765.315C725.124,768.762 736.891,762.371 737.355,743.495C737.653,731.327 736.85,669.599 737.744,668.752C738.258,668.265 752.925,667.397 753.566,669.472C754.653,672.99 753.556,673.082 753.556,715.5C753.556,745.574 757.159,770.776 728.504,778.517C727.193,778.871 719.301,778.958 718.5,778.967ZM586.355,715.763C584.193,717.033 585.319,717.599 585.394,720.501C585.511,724.979 586.31,755.663 585.515,776.502C585.417,779.061 575.697,778.696 574.714,777.371C573.943,776.331 574.87,663.806 574.248,627.484C574.188,623.995 582.228,625.165 583.52,625.176C587.198,625.208 585.483,633.178 585.222,637.566C584.972,641.748 586.934,637.728 589.703,634.683C609.338,613.091 635.312,615.632 639.549,616.047C648.873,616.959 648.768,617.242 657.646,620.073C676.486,626.081 690.708,646.089 694.096,659.62C709.031,719.269 648.354,756.19 606.286,732.898C590.964,724.414 587.436,717.104 586.355,715.763ZM634.501,728.079C639.489,727.304 666.005,727.536 680.74,697.616C686.704,685.506 689.065,657.341 666.201,638.871C636.927,615.222 596.613,630.867 586.253,663.418C585.693,665.178 585.255,666.554 585.534,686.5C585.635,693.685 591.767,709.86 608.218,719.945C620.435,727.435 625.585,726.606 634.501,728.079ZM433.261,626.068C445.339,615.729 467.655,616.64 477.731,629.312C480.156,632.363 480.992,634.411 483.16,631.242C494.269,615.01 526.889,613.262 538.149,636.663C542.474,645.649 541.89,646.078 541.89,706.5C541.89,735.09 542.448,736.727 539.509,736.753C538.794,736.759 531.385,736.824 530.672,735.438C529.629,733.41 531.973,652.412 529.411,644.53C522.842,624.326 487.283,624.817 487.131,653.5C486.705,733.799 488.857,736.709 484.511,736.75C483.841,736.756 476.594,736.826 476.216,735.621C475.337,732.821 477.341,655.506 475.147,646.576C469.53,623.717 433.83,626.062 431.901,650.51C431.572,654.674 432.577,735.212 431.339,736.322C430.849,736.761 420.91,738.194 420.585,734.491C420.241,730.582 421.095,658.615 420.252,627.49C420.108,622.176 432.257,625.771 433.261,626.068ZM272.061,684.528C266.01,642.888 306.796,603.96 352.509,618.473C396.327,632.384 406.472,686.116 382.381,715.403C341.62,764.956 275.229,732.147 272.061,684.528ZM383.05,686.448C383.129,684.462 383.316,682.481 383.396,680.495C384.565,651.401 364.177,630.778 338.457,627.93C292.479,622.84 262.913,680.317 299.528,714.469C316.077,729.905 338.734,728.487 346.615,725.843C375.897,716.018 380.755,694.897 383.05,686.448ZM141.072,667.463C143.416,655.481 144.399,644.81 164.752,627.824C181.688,613.69 208.811,611.794 230.299,621.917C239.207,626.115 250.683,638.23 251.612,640.439C252.99,643.717 241.514,646.83 239.94,645.077C216.392,618.85 176.025,621.375 157.055,655.251C148.317,670.855 152.949,691.046 154.849,695.353C172.591,735.591 219.883,734.674 238.882,710.792C241.341,707.702 242.021,708.638 245.645,710.093C248.31,711.162 254.197,711.941 251.325,715.363C206.562,768.692 130.886,727.538 141.072,667.463ZM9.049,677.5C9.355,661.39 10.759,653.787 22.817,637.723C26.056,633.408 36.944,624.509 40.605,622.7C83.101,601.701 116.591,632.574 116.252,636.469C116.151,637.626 86.102,666.839 83.434,669.433C61.35,690.903 62.098,691.534 40.093,713.094C37.029,716.097 38.696,717.762 50.266,722.999C83.114,737.869 106.26,712.711 107.191,711.268C110.285,706.47 111.555,709.331 117.584,711.253C124.034,713.309 119.332,715.555 116.761,718.711C96.477,743.619 54.934,747.713 29.15,723.878C6.788,703.205 9.106,680.919 9.049,677.5ZM20.908,686.459C21.295,688.045 23.661,697.741 28.811,705.28C31.023,708.519 31.391,704.4 43.973,692.978C44.85,692.182 61.338,675.113 68.963,667.964C71.026,666.03 70.56,665.629 94.071,643.091C100.121,637.291 98.727,636.279 98.19,635.889C75.185,619.183 31.045,627.16 21.144,667.411C19.654,673.467 20.761,684.942 20.908,686.459Z" style="fill:white;"/>
                </g>
            </g>
        </g>
    </g>
</svg>
