<?xml version="1.0" encoding="UTF-8" standalone="no"?><!DOCTYPE svg PUBLIC "-//W3C//DTD SVG 1.1//EN" "http://www.w3.org/Graphics/SVG/1.1/DTD/svg11.dtd"><svg width="100%" height="100%" viewBox="0 0 1573 618" version="1.1" xmlns="http://www.w3.org/2000/svg" xmlns:xlink="http://www.w3.org/1999/xlink" xml:space="preserve" xmlns:serif="http://www.serif.com/" style="fill-rule:evenodd;clip-rule:evenodd;stroke-linejoin:round;stroke-miterlimit:2;"><rect id="Prancheta1" x="0" y="0" width="1572.832" height="617.933" style="fill:none;"/><g><g id="Logo"><path d="M368.388,308.22c2.88,15.129 2.675,15.26 10.272,29.172c3.253,5.959 14.691,16.761 17.572,18.383c16.537,9.31 19.808,12.776 48.667,11.088c3.312,-0.194 22.869,-5.918 33.865,-17.784c10.643,-11.486 10.434,-12.435 12.19,-11.89c1.932,0.599 1.876,0.704 23.875,8.335c11.877,4.12 14.752,5.022 12.287,7.86c-11.859,13.647 -30.636,52.866 -93.177,54.973c-45.772,1.542 -74.673,-30.644 -79.325,-35.825c-4.859,-5.413 -5.573,-7.585 -8.045,-4.596c-49.01,59.279 -122.194,47.842 -159.245,10.917c-10.333,-10.298 -21.531,-26.259 -21.505,-26.627c0.152,-2.132 30.49,-10.661 36.277,-13.626c7.898,-4.047 3.157,8.166 30.646,23.004c0.271,0.146 10.286,7.78 38.168,6.356c11.391,-0.582 28.454,-4.878 23.655,-9.339c-5.702,-5.299 -66.962,-65.984 -69.534,-68.476c-3.973,-3.851 -48.663,-47.159 -48.87,-48.942c-0.208,-1.786 12.963,-16.655 20.562,-21.283c1.644,-1.001 4.269,-4.373 13.401,-9.331c27.161,-14.747 90.222,-28.667 136.724,28.753c1.838,2.27 2.073,-1.261 8.203,-6.976c8.594,-8.014 16.954,-22.293 52.792,-32.528c30.336,-8.663 75.89,-0.056 102.205,30.309c18.999,21.922 18.988,23.933 16.753,24.787c-35.804,13.684 -36.736,13.759 -38.947,11.383c-8.907,-9.57 -23.744,-32.466 -63.898,-27.915c-17.634,1.999 -48.474,16.461 -54.835,54.868c-1.23,7.429 -0.757,7.399 -0.733,14.95Zm-40.857,7c0.227,-18.788 2.374,-42.283 -27.659,-64.89c-26.311,-19.804 -65.532,-9.65 -65.523,-7.108c0.001,0.479 79.786,78.288 85.054,84.574c6.335,7.559 6.603,-4.728 8.128,-12.576Zm47.415,247.611c43.074,0.399 48.834,-0.286 89.898,-9.969c29.119,-6.868 55.492,-23.545 46.909,-14.797c-0.328,0.335 -28.411,16.567 -44.925,22.908c-57.304,22.006 -127.834,37.239 -223.715,-2.128c-14.228,-5.841 -49.329,-26.114 -65.914,-40.9c-11.781,-10.501 -30.075,-24.492 -55.574,-61.499c-41.041,-59.564 -66.088,-159.4 -30.421,-254.101c1.876,-4.982 5.467,-20.845 29.096,-58.872c9.282,-14.937 24.676,-32.223 27.023,-34.858c25.429,-28.554 54.532,-46.731 59.824,-50.036c3.214,-2.008 25.313,-15.81 41.854,-22.191c4.9,-1.891 4.315,0.684 4.134,0.971c-1.449,2.305 -22.03,7.548 -62.218,46.862c-20.677,20.229 -68.387,78.475 -78.078,158.007c-5.676,46.586 -3.49,84.172 12.855,132.095c38.743,113.594 138.031,157.892 139.403,158.591c52.865,26.934 102.827,28.764 109.849,29.917Zm4.991,-528.057c56.24,0.079 58.591,6.03 84.082,13.134c3.114,0.868 16.181,4.51 37.159,15.881c2.91,1.577 20.712,11.226 34.792,22.409c12.277,9.749 12.023,10.037 13.093,10.879c21.434,16.878 44.137,49.053 45.516,51.392c8.688,14.738 61.93,90.22 35.202,204.734c-8.913,38.187 -32.668,80.01 -51.792,102.082c-18.702,21.585 -19.805,22.989 -21.129,21.007c-0.69,-1.032 14.053,-17.338 25.442,-37.842c34.593,-62.28 31.364,-121.173 31.32,-128.208c-0.038,-6.053 -0.619,-5.94 -0.836,-11.992c-2.145,-59.889 -34.996,-120.391 -65.998,-152.866c-36.101,-37.817 -70.496,-53.067 -72.01,-53.825c-85.966,-43.013 -171.307,-26.818 -221.988,-1.614c-86.123,42.828 -101.519,99.116 -106.012,94.448c-0.553,-0.574 1.707,-4.877 1.916,-5.275c16.982,-32.347 29.292,-49.133 50.601,-70.52c6.518,-6.541 6.782,-6.151 13.558,-12.45c30.242,-28.114 75.27,-45.783 77.251,-46.417c43.254,-13.842 54.453,-15.175 89.833,-14.957Zm217.444,276.457c2.738,22.035 -1.437,72.916 -24.706,113.868c-10.96,19.289 -33.787,60.84 -94.491,91.641c-53.654,27.223 -129.102,32.461 -194.989,-1.978c-0.294,-0.153 -8.14,-3.796 -9.291,-4.464c-5.269,-3.054 -2.278,-4.443 -1.916,-4.329c2.181,0.69 12.928,8.196 47.977,15.148c120.793,23.956 251.14,-68.709 250.54,-212.875c-0.074,-17.764 -6.076,-62.443 -25.817,-96.865c-21.071,-36.742 -34.297,-47.332 -53.585,-64.327c-6.316,-5.566 -30.317,-21.999 -44.216,-26.685c-2.915,-0.983 -2.872,-3.999 0.004,-3.003c0.907,0.314 91.174,24.253 133.655,120.056c1.441,3.251 10.29,27.942 12.439,37.812c3.994,18.341 4.33,33.1 4.396,36.001Z" style="fill:#fff;"/></g><g id="Marca"><path d="M1496.589,359.263c-0.041,6.258 0.849,13.053 -2.298,13.08c-11.833,0.098 -14.005,0.071 -14.085,-2.071c-0.517,-13.991 0.097,-14.266 1.178,-14.748c0.04,-0.019 13.943,-0.274 14.55,0.174c0.628,0.463 0.367,0.579 0.655,3.565Zm-31.509,-60.199c7.557,-22.634 32.963,-19.397 33.601,-13.866c0.156,1.356 -0.221,11.531 -1.549,12.925c-3.257,3.415 -20.881,-7.584 -30.367,14.351c-3.921,9.066 0.749,57.563 -2.544,59.648c-0.312,0.197 -13.938,0.452 -14.707,-0.141c-1.735,-1.339 -0.736,-78.87 -0.647,-85.728c0.065,-5.046 2.421,-3.271 7.419,-3.28c0.001,0 5.403,-0.835 6.209,2.216c1.463,5.534 1.084,10.184 1.016,12.993l1.569,0.882Zm-62.794,91.664c-6.399,0.039 -17.056,0.86 -16.163,-4.485c1.273,-7.619 0.73,-10.934 8.203,-9.167c14.584,3.447 26.351,-2.944 26.815,-21.82c0.298,-12.168 -0.505,-73.896 0.389,-74.743c0.514,-0.487 15.181,-1.355 15.822,0.72c1.087,3.518 -0.01,3.61 -0.01,46.028c0,30.074 3.603,55.276 -25.052,63.017c-1.311,0.354 -9.203,0.441 -10.004,0.45Zm-132.145,-63.204c-2.162,1.27 -1.036,1.836 -0.961,4.738c0.117,4.478 0.916,35.162 0.121,56.001c-0.098,2.559 -9.818,2.194 -10.801,0.869c-0.771,-1.04 0.156,-113.565 -0.466,-149.887c-0.06,-3.489 7.98,-2.319 9.272,-2.308c3.678,0.032 1.963,8.002 1.702,12.39c-0.25,4.182 1.712,0.162 4.481,-2.883c19.635,-21.592 45.609,-19.051 49.846,-18.636c9.324,0.912 9.219,1.195 18.097,4.026c18.84,6.008 33.062,26.016 36.45,39.547c14.935,59.649 -45.742,96.57 -87.81,73.278c-15.322,-8.484 -18.85,-15.794 -19.931,-17.135Zm48.146,12.316c4.988,-0.775 31.504,-0.543 46.239,-30.463c5.964,-12.11 8.325,-40.275 -14.539,-58.745c-29.274,-23.649 -69.588,-8.004 -79.948,24.547c-0.56,1.76 -0.998,3.136 -0.719,23.082c0.101,7.185 6.233,23.36 22.684,33.445c12.217,7.49 17.367,6.661 26.283,8.134Zm-201.24,-102.011c12.078,-10.339 34.394,-9.428 44.47,3.244c2.425,3.051 3.261,5.099 5.429,1.93c11.109,-16.232 43.729,-17.98 54.989,5.421c4.325,8.986 3.741,9.415 3.741,69.837c0,28.59 0.558,30.227 -2.381,30.253c-0.715,0.006 -8.124,0.071 -8.837,-1.315c-1.043,-2.028 1.301,-83.026 -1.261,-90.908c-6.569,-20.204 -42.128,-19.713 -42.28,8.97c-0.426,80.299 1.726,83.209 -2.62,83.25c-0.67,0.006 -7.917,0.076 -8.295,-1.129c-0.879,-2.8 1.125,-80.115 -1.069,-89.045c-5.617,-22.859 -41.317,-20.514 -43.246,3.934c-0.329,4.164 0.676,84.702 -0.562,85.812c-0.49,0.439 -10.429,1.872 -10.754,-1.831c-0.344,-3.909 0.51,-75.876 -0.333,-107.001c-0.144,-5.314 12.005,-1.719 13.009,-1.422Zm-161.2,58.46c-6.051,-41.64 34.735,-80.568 80.448,-66.055c43.818,13.911 53.963,67.643 29.872,96.93c-40.761,49.553 -107.152,16.744 -110.32,-30.875Zm110.989,1.92c0.079,-1.986 0.266,-3.967 0.346,-5.953c1.169,-29.094 -19.219,-49.717 -44.939,-52.565c-45.978,-5.09 -75.544,52.387 -38.929,86.539c16.549,15.436 39.206,14.018 47.087,11.374c29.282,-9.825 34.14,-30.946 36.435,-39.395Zm-241.978,-18.985c2.344,-11.982 3.327,-22.653 23.68,-39.639c16.936,-14.134 44.059,-16.03 65.547,-5.907c8.908,4.198 20.384,16.313 21.313,18.522c1.378,3.278 -10.098,6.391 -11.672,4.638c-23.548,-26.227 -63.915,-23.702 -82.885,10.174c-8.738,15.604 -4.106,35.795 -2.206,40.102c17.742,40.238 65.034,39.321 84.033,15.439c2.459,-3.09 3.139,-2.154 6.763,-0.699c2.665,1.069 8.552,1.848 5.68,5.27c-44.763,53.329 -120.439,12.175 -110.253,-47.9Zm-132.023,10.037c0.306,-16.11 1.71,-23.713 13.768,-39.777c3.239,-4.315 14.127,-13.214 17.788,-15.023c42.496,-20.999 75.986,9.874 75.647,13.769c-0.101,1.157 -30.15,30.37 -32.818,32.964c-22.084,21.47 -21.336,22.101 -43.341,43.661c-3.064,3.003 -1.397,4.668 10.173,9.905c32.848,14.87 55.994,-10.288 56.925,-11.731c3.094,-4.798 4.364,-1.937 10.393,-0.015c6.45,2.056 1.748,4.302 -0.823,7.458c-20.284,24.908 -61.827,29.002 -87.611,5.167c-22.362,-20.673 -20.044,-42.959 -20.101,-46.378Zm11.859,8.959c0.387,1.586 2.753,11.282 7.903,18.821c2.212,3.239 2.58,-0.88 15.162,-12.302c0.877,-0.796 17.365,-17.865 24.99,-25.014c2.063,-1.934 1.597,-2.335 25.108,-24.873c6.05,-5.8 4.656,-6.812 4.119,-7.202c-23.005,-16.706 -67.145,-8.729 -77.046,31.522c-1.49,6.056 -0.383,17.531 -0.236,19.048Z" style="fill:#fff;"/></g></g></svg>