<?xml version="1.0" encoding="UTF-8" standalone="no"?><!DOCTYPE svg PUBLIC "-//W3C//DTD SVG 1.1//EN" "http://www.w3.org/Graphics/SVG/1.1/DTD/svg11.dtd"><svg width="100%" height="100%" viewBox="0 0 246 246" version="1.1" xmlns="http://www.w3.org/2000/svg" xmlns:xlink="http://www.w3.org/1999/xlink" xml:space="preserve" xmlns:serif="http://www.serif.com/" style="fill-rule:evenodd;clip-rule:evenodd;stroke-linejoin:round;stroke-miterlimit:2;"><g id="favicon.jpeg"><path d="M167.488,76.122c-5.996,0.504 -6.243,-0.214 -7.583,1.235c-0.576,0.623 -1.016,2.278 -0.937,2.821c0.615,4.194 0.341,4.216 -13.338,44.591c-0.909,2.683 -3.365,3.779 -4.022,5.634c-1.239,3.494 15.827,3.985 15.383,-0.881c-0.794,-8.713 15.077,-44.753 16.13,-53.018c8.481,-1.793 25.291,5.247 40.303,-15.006c3.297,-4.448 3.828,1.483 3.891,1.724c0.373,1.424 3.208,12.242 4.551,17.824c11.353,40.25 12.023,40.695 9.979,43.635c-29.31,42.148 -84.052,-15.193 -111.968,27.595c-2.016,-3.051 -1.514,-3.224 -8.621,-29.322c-3.609,-13.254 -4.843,-17.04 -9.106,-34.287c21.583,-30.124 45.059,-14.414 62.48,-13.87c2.41,0.075 2.017,0.936 2.857,1.325Z" style="fill:#c0403d;"/><path d="M96.304,157.309c-5.62,-0.921 -5.687,-3.537 -7.211,-1.889c-2.032,2.196 -7.025,1.544 -11.736,1.43c-1.378,-0.033 -2.404,-1.646 -1.075,-3.687c1.495,-2.296 1.461,-2.469 1.416,-37.875c-0.016,-12.424 -2.448,-12.22 -1.929,-13.148c0.658,-1.174 10.161,-1.027 11.049,-1.014c3.54,0.055 2.266,5.621 2.277,8.456c0.015,4.177 2.124,0.583 6.231,-0.243c13.957,-2.806 18.089,46.41 0.978,47.969Zm-1.977,-34.429c-0.195,-4.335 -0.137,-4.314 -0.211,-4.682c-0.358,-1.79 -5.066,-5.542 -4.968,2.785c0.282,23.857 -0.401,27.985 0.805,29.104c5.649,5.243 4.372,-14.585 4.373,-27.208Z" style="fill:#040404;"/><path d="M71.205,146.602c0.064,3.478 0.308,3.389 1.257,6.687c1.413,4.913 -8.677,5.469 -11.743,1.456c-2.664,-3.487 -8.718,7.053 -15.588,0.336c-3.434,-3.357 -7.681,-21.619 3.901,-27.128c8.257,-3.927 11.934,-2.765 10.503,-11.771c-0.082,-0.518 -3.849,-5.544 -5.35,3.781c-0.933,5.797 -15.287,5.616 -10.26,-4.776c3.082,-6.372 15.463,-7.36 21.771,-4.179c7.56,3.813 5.091,14.55 5.509,35.594Zm-11.525,-5.693c0.007,-2.165 0.286,-11.752 -0.451,-12.23c-5.224,-3.392 -7.728,22.414 -1.725,21.108c2.05,-0.446 2.165,-8.147 2.176,-8.878Z" style="fill:#030303;"/><path d="M182.655,85.31c3.876,0.324 6.456,-1.263 5.235,2.34c-7.841,23.138 -15.754,42.792 -8.202,36.932c1.766,-1.371 12.556,-31.448 11.659,-34.955c-1.074,-4.203 4.122,-4.286 4.627,-4.294c0.715,-0.011 8.727,-0.139 8.818,1.473c0.234,4.146 -13.461,32.49 -12.556,42.715c0.03,0.341 0.272,3.072 -2.918,3.123c-8.939,0.144 -9.837,0.625 -10.589,-2.143c-0.733,-2.697 -13.645,7.313 -15.179,-0.953c-1.273,-6.86 12.331,-33.673 10.893,-39.949c-0.4,-1.745 0.639,-3.308 0.841,-3.516c1.435,-1.481 1.656,-0.673 7.37,-0.774Z" style="fill:#100b0b;"/><path d="M137.006,85.48c17.201,-2.946 11.767,13.982 9.765,20.382c-1.151,3.68 -10.402,2.35 -14.428,2.415c-3.654,0.058 -7.672,16.54 -6.92,18.532c2.753,7.297 12.746,-9.236 12.794,-9.258c7.646,-3.544 1.89,9.786 -5.978,13.6c-25.204,12.219 -21.758,-34.671 4.767,-45.67Z" style="fill:#110b0a;"/><path d="M167.488,76.122c1.878,0.127 3.756,0.255 5.633,0.382c-1.053,8.266 -16.924,44.305 -16.13,53.018c0.443,4.866 -16.622,4.375 -15.383,0.881c0.658,-1.855 3.113,-2.951 4.022,-5.634c13.679,-40.375 13.954,-40.398 13.338,-44.591c-0.08,-0.543 0.361,-2.197 0.937,-2.821c1.34,-1.45 1.587,-0.732 7.583,-1.235Z" style="fill:#100b0b;"/><path d="M36.743,124.778c-0.002,24.979 -0.376,25.136 1.338,28.63c2.577,5.254 -13.861,3.9 -14.622,2.559c-1.267,-2.232 1.837,-3.506 1.898,-7.465c0.607,-39.56 -0.075,-40.747 -1.821,-43.787c-2.068,-3.602 3.104,-3.615 3.507,-3.616c0.756,-0.002 8.697,-0.021 9.402,0.952c0.403,0.557 0.298,5.335 0.298,22.728Z" style="fill:#020202;"/><path d="M102.151,88.667c4.264,17.247 5.497,21.033 9.106,34.287c7.107,26.098 6.605,26.271 8.621,29.322c0.448,8.763 14.197,46.735 10.593,47.464c-1.603,0.325 -1.945,-0.355 -8.724,-25.564c-1.958,-7.282 -24.34,-90.518 -24.168,-91.104c0.398,-1.362 1.402,-1.356 1.568,-1.355c1.696,0.01 1.133,0.812 3.004,6.95Z" style="fill:#0e0707;"/><path d="M140.147,93.526c-2.422,7.055 -3.285,11.448 -6.833,10.386c-0.879,-0.263 -1.539,-0.788 2.316,-11.239c1.076,-2.917 5.863,-5.367 4.517,0.853Z" style="fill:#c24446;"/><path d="M210.031,85.199c0.971,5.739 3.852,9.821 0.717,9.51c-0.372,-0.037 0.387,-0.557 -2.286,-4.08c-0.182,-0.411 -2.101,-4.738 -2.08,-5.214c0.048,-1.098 3.365,-0.286 3.649,-0.217Z" style="fill:#bd433a;"/></g></svg>