<?xml version="1.0" standalone="no"?>
<!DOCTYPE svg PUBLIC "-//W3C//DTD SVG 20010904//EN"
 "http://www.w3.org/TR/2001/REC-SVG-20010904/DTD/svg10.dtd">
<svg version="1.0" xmlns="http://www.w3.org/2000/svg"
 width="114.000000pt" height="151.000000pt" viewBox="0 0 114.000000 151.000000"
 preserveAspectRatio="xMidYMid meet">

<g transform="translate(0.000000,151.000000) scale(0.100000,-0.100000)"
fill="#000000" stroke="none">
<path d="M303 1253 c-3 -7 -11 -13 -19 -13 -18 0 -18 -21 1 -46 8 -10 15 -34
15 -51 0 -32 -1 -33 -40 -33 l-40 0 2 -52 c1 -51 2 -51 5 -10 2 23 5 42 7 42
3 0 181 -182 286 -293 l65 -68 160 181 c87 99 163 180 168 180 5 0 6 -17 3
-37 -3 -21 -8 -179 -12 -350 -4 -172 -9 -313 -13 -312 -3 0 -60 61 -126 135
-66 74 -134 148 -151 165 l-31 30 -153 -168 c-84 -92 -156 -170 -161 -171 -5
-2 -9 46 -9 107 0 61 -3 111 -7 111 -5 0 -8 -19 -8 -42 l0 -43 -53 -3 c-53 -3
-54 -4 -47 -30 18 -67 17 -84 -4 -99 -29 -20 -27 -59 10 -154 l31 -81 96 3
c68 2 97 -1 100 -9 2 -7 -1 -12 -7 -12 -17 0 -13 -25 7 -50 14 -17 24 -21 41
-15 28 9 46 52 30 71 -15 19 -13 20 44 27 42 6 47 4 47 -12 0 -11 -6 -21 -12
-24 -23 -8 14 -62 45 -65 21 -3 29 2 37 22 5 14 7 40 3 57 l-6 31 44 -7 c51
-8 56 -12 42 -26 -28 -28 16 -87 56 -74 25 8 46 55 29 66 -27 17 7 24 101 21
l98 -4 16 34 c21 45 57 154 56 170 0 7 -7 -2 -15 -20 -22 -49 -62 -63 -168
-55 -79 5 -86 8 -86 27 0 17 12 25 63 41 55 18 62 23 65 48 3 27 5 28 41 22
37 -6 38 -6 54 37 10 24 17 47 17 51 0 4 -25 7 -56 7 l-56 0 6 143 c3 78 7
214 8 302 l3 160 -39 0 c-38 0 -40 1 -40 32 0 18 9 41 19 53 17 19 17 20 -7
45 -21 20 -32 24 -71 21 -28 -2 -54 -11 -67 -24 -21 -19 -21 -22 -6 -43 9 -13
16 -38 16 -56 0 -33 0 -33 -50 -33 -50 0 -50 0 -50 33 0 17 7 41 15 51 19 25
19 46 0 46 -8 0 -15 7 -15 15 0 11 -12 14 -55 12 -36 -1 -55 -6 -55 -14 0 -7
-6 -13 -14 -13 -23 0 -26 -27 -5 -46 11 -10 19 -30 19 -51 l0 -33 -55 0 c-55
0 -55 0 -55 31 0 17 9 42 20 56 l20 26 -25 23 c-20 18 -35 23 -71 21 -26 -1
-49 -7 -51 -14z m284 -201 c10 8 17 8 25 0 7 -7 21 -12 31 -12 15 0 18 -5 14
-21 -5 -17 -3 -18 9 -8 12 10 19 8 34 -9 23 -24 26 -42 8 -43 -10 0 -10 -2 0
-6 22 -9 13 -31 -23 -53 -24 -15 -35 -29 -35 -46 0 -18 -5 -24 -23 -24 -13 0
-28 -5 -35 -12 -9 -9 -18 -9 -34 -1 -13 6 -31 14 -40 17 -11 3 -18 15 -18 29
0 29 -18 47 -46 47 -13 0 -24 8 -27 20 -3 14 0 20 10 20 12 0 13 3 4 14 -13
15 1 32 18 22 5 -4 7 3 4 14 -6 23 15 27 37 8 12 -11 12 -10 2 4 -15 18 -1 33
23 25 7 -3 16 1 20 10 4 12 9 13 17 5 9 -9 15 -9 25 0z m48 -452 c9 0 15 -9
15 -25 0 -14 6 -25 13 -25 8 0 24 -11 37 -26 19 -19 22 -27 11 -33 -9 -6 -10
-11 -2 -15 16 -10 14 -26 -4 -26 -8 0 -12 -6 -9 -14 9 -23 -18 -31 -33 -10
-13 18 -13 17 -11 -6 2 -17 -2 -25 -12 -25 -8 0 -21 -4 -28 -9 -7 -4 -19 -2
-27 4 -11 9 -15 9 -15 1 0 -6 -7 -11 -15 -11 -8 0 -15 8 -15 17 0 13 -3 14
-12 5 -20 -20 -31 -14 -25 13 4 24 3 25 -13 10 -20 -18 -34 -7 -24 18 4 12 0
14 -15 10 -23 -6 -27 6 -8 26 6 7 8 11 2 9 -10 -3 -15 4 -15 20 0 4 16 14 35
21 29 10 35 17 35 42 0 24 4 29 24 29 13 0 29 7 36 15 12 14 15 14 36 0 13 -8
30 -15 39 -15z m-287 -266 c16 -3 22 -11 22 -29 0 -21 -5 -25 -27 -25 -16 0
-52 -3 -80 -6 -63 -8 -72 9 -18 32 19 8 35 17 35 20 0 3 -4 3 -9 0 -5 -3 -12
1 -15 9 -6 16 11 16 92 -1z m187 -34 c4 -6 -12 -10 -39 -10 -25 0 -46 5 -46
10 0 6 18 10 39 10 22 0 43 -4 46 -10z m165 0 c0 -5 -21 -10 -47 -10 -35 0
-44 3 -33 10 20 13 80 13 80 0z m-312 -50 c5 -13 3 -13 -11 -1 -15 11 -17 11
-17 -2 0 -9 4 -27 10 -41 7 -21 6 -26 -5 -26 -10 0 -15 11 -15 34 0 19 -4 38
-10 41 -5 3 -10 1 -10 -6 0 -7 -3 -10 -6 -6 -3 3 -3 11 1 17 10 16 57 8 63
-10z m28 12 c-3 -4 -1 -25 4 -45 4 -20 4 -37 0 -37 -4 0 -10 14 -14 31 -9 45
-8 59 5 59 5 0 8 -4 5 -8z m84 -1 c0 -5 -9 -7 -20 -4 -14 4 -20 0 -20 -11 0
-10 4 -15 9 -12 5 3 11 -1 14 -9 4 -9 1 -12 -9 -8 -8 3 -14 -1 -14 -11 0 -19
21 -21 38 -4 9 9 12 8 12 -5 0 -12 -8 -17 -29 -17 -24 0 -29 5 -35 31 -10 53
-8 59 24 59 17 0 30 -4 30 -9z m46 -3 c4 -6 3 -13 -2 -15 -6 -2 -8 -17 -6 -33
2 -17 0 -30 -4 -30 -5 0 -10 20 -10 45 -1 44 7 57 22 33z m120 0 c5 -8 2 -9
-9 -5 -14 5 -17 0 -17 -28 0 -19 -4 -35 -9 -35 -5 0 -9 6 -8 13 1 40 -4 55
-20 53 -10 0 -21 -5 -25 -11 -5 -6 -8 -3 -8 6 0 12 11 16 44 17 25 1 48 -3 52
-10z m29 -28 c0 -22 -3 -40 -7 -40 -5 0 -8 18 -8 40 0 22 4 40 8 40 4 0 8 -18
7 -40z m-427 10 c5 -13 3 -13 -12 -1 -12 10 -20 11 -28 3 -8 -8 -1 -15 26 -26
39 -16 44 -27 21 -46 -17 -14 -47 -10 -53 8 -3 11 0 12 16 3 19 -10 32 -6 32
10 0 4 -13 12 -30 18 -16 5 -30 17 -30 25 0 27 49 33 58 6z m35 3 c14 -49 17
-73 9 -73 -4 0 -12 20 -18 45 -6 25 -7 45 -3 45 4 0 10 -8 12 -17z m478 -15
c8 -31 -9 -52 -38 -46 -13 2 -19 14 -21 41 -3 37 -2 38 24 35 20 -2 30 -10 35
-30z m39 -2 c0 -19 4 -37 9 -40 14 -9 34 22 28 44 -3 11 -1 20 4 20 15 0 10
-56 -5 -69 -25 -21 -56 4 -56 44 0 19 5 35 10 35 6 0 10 -15 10 -34z m120 14
c8 -5 11 -12 7 -16 -3 -4 -13 -1 -22 6 -9 7 -19 10 -22 6 -4 -4 6 -17 22 -30
29 -24 28 -46 -4 -46 -18 0 -41 18 -41 34 0 5 9 1 20 -9 11 -10 23 -15 27 -11
4 4 -3 15 -16 25 -39 30 -12 67 29 41z m-357 -13 c4 3 7 -3 7 -15 0 -27 -8
-28 -26 -4 -17 22 -18 38 -1 23 8 -6 17 -8 20 -4z"/>
<path d="M733 225 c0 -30 14 -42 30 -26 9 9 8 14 -3 21 -10 7 -11 10 -2 10 6
0 12 5 12 10 0 6 -8 10 -19 10 -13 0 -18 -7 -18 -25z"/>
<path d="M224 983 c2 -10 8 -98 11 -196 4 -98 9 -176 12 -173 9 9 -9 386 -19
386 -5 0 -7 -8 -4 -17z"/>
<path d="M360 833 c-54 -38 -67 -52 -73 -81 -9 -44 3 -79 39 -117 32 -34 94
-59 94 -37 0 6 27 31 59 57 89 68 90 99 4 136 -23 10 -46 26 -52 37 -16 30
-33 31 -71 5z m74 -22 l28 -29 -38 12 c-61 21 -71 26 -41 22 22 -3 25 -1 16
10 -22 27 8 14 35 -15z m33 -35 c44 -3 76 -32 63 -57 -12 -21 -73 -70 -92 -73
-22 -3 -37 -16 -34 -29 1 -7 1 -9 -1 -6 -2 4 -13 5 -23 2 -23 -6 -26 7 -7 26
10 10 7 11 -15 6 -30 -8 -36 3 -15 24 10 10 7 11 -15 6 -22 -6 -28 -4 -28 9 0
9 8 16 21 16 11 0 17 5 14 10 -3 6 -15 10 -26 10 -27 0 -14 20 14 21 22 0 22
0 -1 10 -36 14 -17 28 25 18 63 -14 81 -9 30 10 -61 21 -52 34 11 14 26 -7 61
-15 79 -17z"/>
<path d="M748 833 c-12 -14 -44 -36 -69 -49 -26 -12 -49 -31 -53 -40 -9 -24
15 -56 72 -93 28 -18 53 -39 56 -48 10 -24 56 -7 97 37 33 35 36 44 33 85 -3
53 -11 65 -70 104 l-42 29 -24 -25z m26 -7 c-4 -11 1 -13 18 -10 13 2 6 -2
-14 -9 -42 -14 -66 -34 -28 -23 14 4 43 9 65 11 39 5 38 4 -15 -15 l-55 -20
50 6 c28 3 54 7 59 7 5 1 10 -3 13 -10 2 -6 -6 -13 -19 -16 -20 -4 -20 -4 5
-6 31 -1 38 -21 7 -21 -11 0 -20 -4 -20 -10 0 -5 7 -10 15 -10 8 0 15 -7 15
-16 0 -12 -6 -15 -21 -11 -16 4 -18 3 -9 -8 15 -18 -3 -29 -33 -19 -19 6 -20
5 -8 -10 23 -27 5 -30 -31 -5 -18 13 -38 23 -43 22 -17 -4 -85 57 -85 77 0 23
23 42 54 44 13 0 24 3 23 6 -2 7 47 60 55 60 4 0 5 -6 2 -14z m1 -216 c3 -5 1
-10 -4 -10 -6 0 -11 5 -11 10 0 6 2 10 4 10 3 0 8 -4 11 -10z"/>
</g>
</svg>
