<svg width="311" height="132" viewBox="0 0 311 132" fill="none" xmlns="http://www.w3.org/2000/svg" style="width: 100%; height: 100%;">
<g clip-path="url(#clip0_35_3403)">
<path d="M73.746 130.664C64.466 116.46 53.137 102.422 37.063 96.991C31.242 95.024 24.621 94.231 19.102 96.933C17.819 97.561 16.579 98.414 15.884 99.662C15.021 101.212 15.132 103.11 15.42 104.86C16.658 112.373 31.081 128.27 33.074 130.877C49.861 130.877 53.013 130.664 73.746 130.664Z" fill="#55D087" stroke="#010101" stroke-width="1.5" stroke-linecap="round" stroke-linejoin="round"></path>
<path d="M36.03 130.685C32.672 124.901 27.471 120.206 21.375 117.455C16.98 115.471 11.974 114.492 7.29201 115.645C4.82601 116.252 2.34401 117.609 1.31801 119.932C0.752008 121.213 0.687008 122.659 0.791008 124.055C0.966008 126.391 1.62601 128.751 3.06501 131.042C14.035 131.081 25.005 131.122 36.03 130.685Z" fill="#55D087" stroke="#010101" stroke-width="1.5" stroke-linecap="round" stroke-linejoin="round"></path>
<path d="M24.562 98.487C35.55 109.475 45.163 119.608 54.413 129.968L24.562 98.487Z" fill="white"></path>
<path d="M24.562 98.487C35.55 109.475 45.163 119.608 54.413 129.968" stroke="#010101" stroke-width="1.5" stroke-linecap="round" stroke-linejoin="round"></path>
<path d="M9.534 115.318C12.486 120.63 15.803 125.739 19.455 130.596L9.534 115.318Z" fill="white"></path>
<path d="M9.534 115.318C12.486 120.63 15.803 125.739 19.455 130.596" stroke="#010101" stroke-width="1.5" stroke-linecap="round" stroke-linejoin="round"></path>
<path d="M34.345 0.946989C34.345 0.946989 158.477 0.227989 222.616 1.53599C224.341 9.96399 221.388 1.24699 224.002 10.246C161.168 10.98 36 10.246 36 10.246L34.345 0.945989V0.946989Z" fill="#010101" stroke="#010101" stroke-width="1.5" stroke-linecap="round" stroke-linejoin="round"></path>
<path d="M224.002 10.247C224.002 10.247 247.721 120.659 249.539 129.213C182.192 128.357 124.922 129.529 56.866 130.274C48.615 90.034 42.368 49.089 35.856 9.55798C60.081 11.336 224.002 10.247 224.002 10.247Z" fill="white" stroke="#010101" stroke-width="1.5" stroke-linecap="round" stroke-linejoin="round"></path>
<path d="M94.675 13.878C105.157 21.717 107.888 34.174 101.509 45.603C96.071 55.347 85.052 61.179 80.239 71.247C77.546 76.88 77.081 83.273 75.779 89.379C74.477 95.485 71.954 101.848 66.649 105.14C63.415 107.147 53.323 112.577 52.561 108.849C47.499 84.074 42.531 50.283 36 10.247C50.538 9.42398 68.409 10.119 80.035 10.119C85.726 10.119 91.967 11.853 94.675 13.878Z" fill="#E3E3FF" stroke="#010101" stroke-width="1.5" stroke-linecap="round" stroke-linejoin="round"></path>
<path d="M108.106 10.247C109.524 27.762 109.885 45.362 109.186 62.921C109.105 64.964 109.006 67.025 108.478 69C107.714 71.858 106.091 74.398 104.491 76.886C93.505 93.974 82.518 111.062 71.532 128.15" stroke="#010101" stroke-width="1.5" stroke-linecap="round" stroke-linejoin="round"></path>
<path d="M83.88 128.733C92.733 116.241 100.625 103.068 107.463 89.368C109.959 84.368 112.365 79.222 117.048 75.247C141.528 75.942 166.009 76.637 190.272 78.169C184.957 94.608 180.106 111.196 175.726 127.908" stroke="#010101" stroke-width="1.5" stroke-linecap="round" stroke-linejoin="round"></path>
<path d="M187.578 127.946C191.98 109.593 199.016 79.769 200.171 79.101C200.858 78.704 223.137 78.872 238.673 78.555" stroke="#010101" stroke-width="1.5" stroke-linecap="round" stroke-linejoin="round"></path>
<path d="M116.707 9.89499C117.954 28.341 118.749 46.817 118.998 65.258C142.745 65.126 166.995 67.314 190.444 68.261C182.733 48.981 175.374 27.861 169.392 7.97699" stroke="#010101" stroke-width="1.5" stroke-linecap="round" stroke-linejoin="round"></path>
<path d="M178.951 8.42096C187.432 27.651 195.389 48.831 200.758 67.566C211.234 68.577 225.787 67.8 236.309 67.547" stroke="#010101" stroke-width="1.5" stroke-linecap="round" stroke-linejoin="round"></path>
<path d="M129.124 84.542C126.261 84.485 123.398 84.429 120.535 84.372C120.133 84.364 119.696 84.367 119.379 84.614C119.019 84.894 118.931 85.393 118.869 85.845C118.581 87.948 118.294 90.051 118.006 92.155C117.955 92.525 117.92 92.949 118.173 93.225C118.377 93.448 118.704 93.497 119.003 93.533C122.556 93.962 126.109 94.39 129.662 94.819C129.916 91.523 130.17 88.227 129.124 84.542Z" stroke="#010101" stroke-width="1.5" stroke-linecap="round" stroke-linejoin="round"></path>
<path d="M173.009 87.913C163.133 87.024 153.241 86.317 143.339 85.794C143.148 89.313 142.958 92.833 142.767 96.352C153.061 97.815 163.424 98.795 173.81 99.287C172.888 95.75 173.043 91.941 173.008 87.913H173.009Z" fill="#a53824" stroke="#010101" stroke-width="1.5" stroke-linecap="round" stroke-linejoin="round"></path>
<path d="M159.836 120.896C160.488 115.973 161.441 111.09 162.997 106.143C166.315 105.732 169.66 105.535 173.004 105.555C172.777 105.693 172.721 105.993 172.689 106.258C172.02 111.631 171.351 117.004 170.682 122.377C167.07 122.906 163.349 122.679 159.836 120.896Z" stroke="#010101" stroke-width="1.5" stroke-linecap="round" stroke-linejoin="round"></path>
<path d="M208.035 85.687C207.553 88.315 207.07 90.942 206.588 93.57C206.398 93.631 206.528 93.227 206.711 93.307C206.894 93.387 206.931 93.626 207.047 93.788C207.241 94.058 207.624 94.085 207.956 94.087C215.188 94.135 222.42 94.183 229.653 94.23C229.967 91.094 229.86 87.916 229.336 84.807C222.21 84.324 215.047 84.38 208.035 85.687Z" stroke="#010101" stroke-width="1.5" stroke-linecap="round" stroke-linejoin="round"></path>
<path d="M165.998 17.167C163.573 17.786 161.13 18.333 158.672 18.807C159.86 25.415 162.22 31.861 162.353 38.574C165.137 37.691 167.98 36.993 170.857 36.485C169.813 32.751 168.77 29.017 167.726 25.283C167.301 23.762 166.875 22.236 166.641 20.674C166.468 19.522 166.401 18.352 165.998 17.167Z" stroke="#010101" stroke-width="1.5" stroke-linecap="round" stroke-linejoin="round"></path>
<path d="M172.769 45.628C168.875 45.95 164.975 46.189 161.071 46.347C161.405 49.644 161.738 52.94 162.072 56.237C162.093 56.447 162.118 56.667 162.24 56.839C162.461 57.152 162.903 57.19 163.286 57.198C167.435 57.28 171.586 57.268 175.734 57.161C175.391 53.281 174.483 49.452 172.77 45.629L172.769 45.628Z" stroke="#010101" stroke-width="1.5" stroke-linecap="round" stroke-linejoin="round"></path>
<path d="M137.47 15.216C133.011 14.045 127.887 16.352 125.808 20.466C125.259 21.553 124.905 22.758 124.929 23.976C124.958 25.419 125.508 26.796 125.746 28.22C126.187 30.861 125.542 33.543 125.242 36.204C124.942 38.865 125.069 41.796 126.762 43.869C127.878 45.236 129.534 46.044 131.193 46.646C137.172 48.817 143.925 48.783 149.882 46.554C150.992 46.139 152.103 45.631 152.932 44.784C154.746 42.931 154.756 39.928 153.965 37.458C153.174 34.988 151.727 32.768 150.942 30.296C150.122 27.717 150.029 24.891 148.756 22.503C146.868 18.961 143.029 16.676 137.47 15.216Z" fill="#55D087" stroke="#010101" stroke-width="1.5" stroke-linecap="round" stroke-linejoin="round"></path>
<path d="M148.738 53.999C144.552 53.866 140.366 53.734 136.18 53.601C134.24 53.54 132.255 53.484 130.405 54.07C130.659 55.895 130.913 57.72 131.168 59.545C131.188 59.691 131.216 59.85 131.329 59.945C131.437 60.035 131.59 60.038 131.73 60.037C137.725 59.995 143.721 59.953 149.716 59.911C150.033 57.815 149.777 55.635 148.738 53.999Z" fill="#a53824" stroke="#010101" stroke-width="1.5" stroke-linecap="round" stroke-linejoin="round"></path>
<path d="M191.028 20.905C194.596 29.914 197.511 39.183 199.742 48.613C202.389 47.888 205.037 47.163 207.684 46.438C205.532 36.951 202.311 27.707 198.103 18.936C195.615 18.695 193.259 19.965 191.028 20.904V20.905Z" stroke="#010101" stroke-width="1.5" stroke-linecap="round" stroke-linejoin="round"></path>
<path d="M221.52 52.534C218.579 52.417 215.625 52.61 212.724 53.11C213.166 53.581 213.307 54.254 213.402 54.894C213.769 57.351 213.755 59.907 214.684 62.211C217.787 61.989 220.893 61.816 224.002 61.692C223.223 58.782 222.444 55.873 221.52 52.534Z" fill="#a53824" stroke="#010101" stroke-width="1.5" stroke-linecap="round" stroke-linejoin="round"></path>
<path d="M233.401 100.837C229.872 100.768 223.481 100.569 223.538 101.013C224.045 104.943 224.383 110.039 224.63 113.993C228.919 113.376 231.765 113.277 236.098 113.309C235.271 110.475 234.929 104.92 233.401 100.837Z" stroke="#010101" stroke-width="1.5" stroke-linecap="round" stroke-linejoin="round"></path>
<path d="M206.129 99.872C204.227 99.687 202.325 99.502 200.423 99.316C200.046 102.079 199.577 104.255 199.376 107.383C201.017 107.652 203.14 107.859 205.268 107.932C205.434 105.353 205.855 102.791 206.129 99.872Z" stroke="#010101" stroke-width="1.5" stroke-linecap="round" stroke-linejoin="round"></path>
<path d="M98.998 127.844C100.21 119.822 102.054 110.875 108.811 106.384C112.628 103.847 117.387 103.23 121.966 103.031C128.991 102.725 136.051 103.242 142.956 104.569C144.671 104.899 146.434 105.303 147.836 106.344C149.815 107.813 150.748 110.304 151.225 112.722C152.108 117.197 151.756 121.91 150.218 126.205C150.001 126.81 149.738 127.439 149.22 127.819C148.679 128.216 147.967 128.267 147.297 128.302C131.349 129.134 115.371 129.387 98.998 127.844Z" fill="#55D087" stroke="#010101" stroke-width="1.5" stroke-linecap="round" stroke-linejoin="round"></path>
<path d="M272.775 16.288C229.087 19.423 240.269 68.041 248.674 84.706C253.923 95.114 264.438 113.453 270.586 122.299C272.617 125.221 274.648 128.143 276.679 131.065C282.615 120.525 289.565 109.701 295.746 98.455C301.827 87.39 307.226 75.726 309.211 63.257C310.513 55.076 309.141 13.678 272.776 16.287L272.775 16.288ZM295.377 55.866C293.683 62.172 288.448 67.324 282.199 69.215C275.95 71.106 268.887 69.798 263.54 66.05C260.81 64.136 258.471 61.569 257.211 58.483C256.224 56.064 255.926 53.403 256.064 50.795C256.42 44.042 259.64 37.334 265.04 33.264C274.359 26.241 285.635 32.525 290.857 37.009C295.811 41.262 297.069 49.56 295.375 55.866H295.377Z" fill="#f3f0ec" stroke="#010101" stroke-width="1.5" stroke-linecap="round" stroke-linejoin="round"></path>
</g>
<defs>
<clipPath id="clip0_35_3403">
<rect width="310.262" height="131.816" fill="white"></rect>
</clipPath>
</defs>
</svg>